<svg xmlns="http://www.w3.org/2000/svg" viewBox="0 0 100 100" fill="none" stroke="currentColor" stroke-width="2" stroke-linecap="round">
  <line x1="10" y1="25" x2="25" y2="25"/>
  <line x1="10" y1="75" x2="25" y2="75"/>
  <path d="M25 25 A7 7 0 0 1 25 39"/>
  <path d="M25 39 A7 7 0 0 1 25 53"/>
  <path d="M25 53 A7 7 0 0 1 25 67"/>
  <path d="M25 67 A7 7 0 0 1 25 75"/>
  <line x1="47" y1="20" x2="47" y2="80"/>
  <line x1="53" y1="20" x2="53" y2="80"/>
  <path d="M75 25 A7 7 0 0 0 75 39"/>
  <path d="M75 39 A7 7 0 0 0 75 53"/>
  <path d="M75 53 A7 7 0 0 0 75 67"/>
  <path d="M75 67 A7 7 0 0 0 75 75"/>
  <line x1="75" y1="25" x2="90" y2="25"/>
  <line x1="75" y1="75" x2="90" y2="75"/>
</svg>
